<?xml version="1.0" encoding="UTF-8" standalone="no"?>
<!-- Created with Inkscape (http://www.inkscape.org/) -->

<svg
   xmlns:dc="http://purl.org/dc/elements/1.1/"
   xmlns:cc="http://creativecommons.org/ns#"
   xmlns:rdf="http://www.w3.org/1999/02/22-rdf-syntax-ns#"
   xmlns:svg="http://www.w3.org/2000/svg"
   xmlns="http://www.w3.org/2000/svg"
   xmlns:sodipodi="http://sodipodi.sourceforge.net/DTD/sodipodi-0.dtd"
   xmlns:inkscape="http://www.inkscape.org/namespaces/inkscape"
   width="150mm"
   height="150mm"
   viewBox="0 0 150 150"
   version="1.1"
   id="svg2731"
   inkscape:version="0.92.4 (5da689c313, 2019-01-14)"
   sodipodi:docname="BGCFlow logo 4.svg"
   inkscape:export-filename="C:\Users\matinnu\Desktop\bgcflow_paper\Figures\BGCFlow_logo.png"
   inkscape:export-xdpi="300"
   inkscape:export-ydpi="300">
  <defs
     id="defs2725" />
  <sodipodi:namedview
     id="base"
     pagecolor="#ffffff"
     bordercolor="#666666"
     borderopacity="1.0"
     inkscape:pageopacity="0.0"
     inkscape:pageshadow="2"
     inkscape:zoom="1"
     inkscape:cx="400.04342"
     inkscape:cy="337.73575"
     inkscape:document-units="mm"
     inkscape:current-layer="layer1"
     showgrid="false"
     inkscape:window-width="1920"
     inkscape:window-height="986"
     inkscape:window-x="-11"
     inkscape:window-y="-11"
     inkscape:window-maximized="1" />
  <metadata
     id="metadata2728">
    <rdf:RDF>
      <cc:Work
         rdf:about="">
        <dc:format>image/svg+xml</dc:format>
        <dc:type
           rdf:resource="http://purl.org/dc/dcmitype/StillImage" />
        <dc:title></dc:title>
      </cc:Work>
    </rdf:RDF>
  </metadata>
  <g
     inkscape:label="Layer 1"
     inkscape:groupmode="layer"
     id="layer1"
     transform="translate(0,-147)">
    <g
       id="g23"
       transform="matrix(1.5666746,0,0,1.5666746,-88.619771,-10.977474)">
      <path
         inkscape:export-ydpi="300"
         inkscape:export-xdpi="300"
         sodipodi:nodetypes="ccccccccccssccccscsc"
         inkscape:connector-curvature="0"
         transform="scale(0.26458333)"
         id="path1513-2-9"
         d="m 359.69727,544.02344 -21.03125,0.002 v 84.12109 c -0.0443,-0.003 -0.0499,-0.0103 -0.0937,-0.0137 v 29.2874 c 0.16844,10.24362 4.33238,12.49788 18.55273,12.94698 l -0.002,-0.0234 c 0.56859,0.0302 1.1372,0.0644 1.73047,0.0644 0,0 123.72126,-2.14284 149.43554,0 L 508.42969,677 c 0.18368,8.57529 0.49954,10.61133 1.65429,10.61133 1.29925,0 40.95508,-26.67301 40.95508,-27.54688 0,-0.43993 -8.62934,-6.485 -19.17773,-13.43359 -21.144,-13.92805 -21.85821,-14.3629 -22.49219,-13.73047 -0.24227,0.24151 -0.5028,4.19522 -0.57812,8.78516 -0.0593,3.58363 -0.21255,6.90484 -0.37696,8.45898 H 366.06641 c -2.04684,0 -3.63208,-0.5117 -4.75782,-1.53515 -1.07455,-1.07452 -1.61132,-2.58485 -1.61132,-4.5293 z"
         style="fill:#2b3743;fill-opacity:1;stroke:none;stroke-width:1.88976383;stroke-miterlimit:4;stroke-dasharray:none" />
      <path
         sodipodi:nodetypes="sccssccsccccscsccssccscccccssccccccc"
         inkscape:connector-curvature="0"
         id="path1157-1-9-47"
         d="m 119.74762,115.48605 c -2.24741,0 -4.17,0.43337 -5.76757,1.29985 -1.59755,0.86647 -2.81613,2.12549 -3.65555,3.7772 -0.83938,1.63817 -1.25904,3.62158 -1.25904,5.95023 v 8.10271 c 0,2.32863 0.41966,4.31905 1.25904,5.97078 0.83942,1.63817 2.058,2.89051 3.65555,3.75698 1.59757,0.85293 3.52016,1.27929 5.76757,1.27929 1.85479,0 3.50641,-0.39928 4.95504,-1.19807 1.46218,-0.79878 2.66708,-1.95656 3.61477,-3.47288 0.96123,-1.52986 1.63151,-3.37093 2.0106,-5.52358 h -5.76757 c -0.20309,0.98833 -0.52786,1.82766 -0.97463,2.51813 -0.44678,0.69047 -0.99509,1.2184 -1.64496,1.58393 -0.64984,0.35201 -1.38091,0.5281 -2.19325,0.5281 -1.04248,0 -1.92926,-0.20983 -2.66034,-0.62953 -0.7311,-0.43323 -1.29312,-1.05606 -1.68573,-1.86837 -0.37907,-0.81233 -0.56854,-1.79402 -0.56854,-2.94478 v -8.10271 c 0,-1.15079 0.18947,-2.13247 0.56854,-2.94479 0.39261,-0.82585 0.95463,-1.44868 1.68573,-1.86838 0.73108,-0.43323 1.61786,-0.64975 2.66034,-0.64975 0.42758,0 0.82767,0.0615 1.20869,0.16621 l 0.878,0.68538 c 4.53868,3.5435 6.03173,4.6622 6.29977,4.71963 0.40866,0.0876 1.07093,-0.1322 1.31185,-0.43558 0.52262,-0.65813 0.30943,-3.40329 -0.37148,-4.78232 -0.68118,-1.37956 -1.10829,-2.3371 -4.63498,-4.85051 -1.27088,-0.90572 -2.95299,-1.06717 -4.69185,-1.06717 z m 6.48108,5.08734 c 0.0985,0.004 0.20499,0.0262 0.31769,0.0706 0.20805,0.0819 0.37002,0.20571 0.48319,0.34851 v 0 c 0.33949,0.42855 0.24271,1.02799 -0.34577,1.17991 -0.28148,0.0727 -0.47574,0.019 -0.76593,-0.21144 -0.67941,-0.53954 -0.37856,-1.41491 0.31116,-1.38757 z"
         style="font-style:normal;font-variant:normal;font-weight:bold;font-stretch:normal;font-size:62.71619034px;line-height:1.25;font-family:Bahnschrift;-inkscape-font-specification:'Bahnschrift, Bold';font-variant-ligatures:normal;font-variant-caps:normal;font-variant-numeric:normal;font-feature-settings:normal;text-align:start;letter-spacing:0px;word-spacing:0px;writing-mode:lr-tb;text-anchor:start;fill:#2b3743;fill-opacity:1;stroke:none;stroke-width:1.03973532" />
      <path
         d="m 59.717155,139.95723 h 9.42289 q 1.90894,0 2.94465,-0.91386 1.05602,-0.93417 1.05602,-2.59942 v -0.0609 q 0,-1.11694 -0.46709,-1.90895 -0.46708,-0.79201 -1.38094,-1.19816 -0.89355,-0.42648 -2.15264,-0.42648 h -9.42289 v -5.36129 h 9.42289 q 1.72618,0 2.66034,-0.87324 0.95448,-0.87325 0.95448,-2.45726 v 0 q 0,-1.42156 -0.95448,-2.21357 -0.93416,-0.79201 -2.66034,-0.79201 h -9.42289 v -5.36135 h 9.60566 q 2.86342,0 4.894219,0.95448 2.030791,0.93417 3.086812,2.74158 1.05601,1.7871 1.05601,4.30528 v 0 q 0,1.72618 -0.690472,3.0665 -0.670158,1.32002 -1.969868,2.17295 -1.29971,0.85293 -3.127431,1.15755 1.949569,0.26401 3.330509,1.19817 1.401252,0.91386 2.112031,2.39634 0.731081,1.48248 0.731081,3.43205 v 0.0609 q 0,2.53849 -1.076322,4.3459 -1.056019,1.8074 -3.107119,2.76187 -2.03079,0.93419 -4.89421,0.93419 h -9.9509 z m -2.43696,-24.16647 h 5.56438 v 29.52777 h -5.56438 z"
         style="font-style:normal;font-variant:normal;font-weight:bold;font-stretch:normal;font-size:62.71619034px;line-height:1.25;font-family:Bahnschrift;-inkscape-font-specification:'Bahnschrift, Bold';font-variant-ligatures:normal;font-variant-caps:normal;font-variant-numeric:normal;font-feature-settings:normal;text-align:start;letter-spacing:0px;word-spacing:0px;writing-mode:lr-tb;text-anchor:start;fill:#2b3743;fill-opacity:1;stroke:none;stroke-width:1.03973532"
         id="path1153-4-8"
         inkscape:connector-curvature="0" />
      <path
         d="m 104.59774,128.80816 v 5.76746 q 0,3.28989 -1.34034,5.80808 -1.32,2.49787 -3.756965,3.87882 -2.436961,1.36063 -5.64561,1.36063 -3.22896,0 -5.706531,-1.2794 -2.45727,-1.29971 -3.817898,-3.65544 -1.340321,-2.35572 -1.340321,-5.46284 v -8.7121 q 0,-3.28989 1.320009,-5.78777 1.340332,-2.49788 3.777282,-3.85851 2.43695,-1.38094 5.64561,-1.38094 2.640039,0 4.873908,1.09663 2.233886,1.07632 3.716356,3.0665 1.5028,1.99018 2.0308,4.6099 v 0 h -6.011154 v 0 q -0.304621,-0.93416 -1.0154,-1.60433 -0.69047,-0.69046 -1.644941,-1.0357 -0.93417,-0.36554 -1.949569,-0.36554 -1.482482,0 -2.619732,0.64985 -1.116928,0.64986 -1.746478,1.84802 -0.60924,1.19818 -0.60924,2.76189 v 8.7121 q 0,1.38094 0.62955,2.43696 0.629539,1.05601 1.787099,1.62464 1.157549,0.56861 2.68065,0.56861 1.502791,0 2.619721,-0.60923 1.137248,-0.62955 1.746488,-1.80741 0.609241,-1.17786 0.609241,-2.78219 v -0.48739 h -4.467749 v -5.3613 z"
         style="font-style:normal;font-variant:normal;font-weight:bold;font-stretch:normal;font-size:62.71619034px;line-height:1.25;font-family:Bahnschrift;-inkscape-font-specification:'Bahnschrift, Bold';font-variant-ligatures:normal;font-variant-caps:normal;font-variant-numeric:normal;font-feature-settings:normal;text-align:start;letter-spacing:0px;word-spacing:0px;writing-mode:lr-tb;text-anchor:start;fill:#2b3743;fill-opacity:1;stroke:none;stroke-width:1.03973532"
         id="path1155-8-5"
         inkscape:connector-curvature="0" />
      <text
         id="text62-3-3-92-2"
         y="171.21481"
         x="63.554466"
         style="font-style:normal;font-variant:normal;font-weight:bold;font-stretch:normal;font-size:41.59069443px;line-height:1.25;font-family:Bahnschrift;-inkscape-font-specification:'Bahnschrift, Bold';font-variant-ligatures:normal;font-variant-caps:normal;font-variant-numeric:normal;font-feature-settings:normal;text-align:start;letter-spacing:0px;word-spacing:0px;writing-mode:lr-tb;text-anchor:start;fill:#2b3743;fill-opacity:1;stroke:none;stroke-width:1.03973532"
         xml:space="preserve"><tspan
           style="font-style:normal;font-variant:normal;font-weight:bold;font-stretch:normal;font-size:41.59069443px;font-family:Bahnschrift;-inkscape-font-specification:'Bahnschrift, Bold';font-variant-ligatures:normal;font-variant-caps:normal;font-variant-numeric:normal;font-feature-settings:normal;text-align:start;writing-mode:lr-tb;text-anchor:start;fill:#2b3743;fill-opacity:1;stroke-width:1.03973532"
           y="171.21481"
           x="63.554466"
           id="tspan60-1-4-1-4"
           sodipodi:role="line">F</tspan></text>
      <text
         id="text62-3-3-9-2-7"
         y="168.55725"
         x="98.388206"
         style="font-style:normal;font-variant:normal;font-weight:bold;font-stretch:normal;font-size:41.59069443px;line-height:1.25;font-family:Bahnschrift;-inkscape-font-specification:'Bahnschrift, Bold';font-variant-ligatures:normal;font-variant-caps:normal;font-variant-numeric:normal;font-feature-settings:normal;text-align:start;letter-spacing:0px;word-spacing:0px;writing-mode:lr-tb;text-anchor:start;fill:#2b3743;fill-opacity:1;stroke:none;stroke-width:1.03973532"
         xml:space="preserve"><tspan
           style="font-style:normal;font-variant:normal;font-weight:bold;font-stretch:normal;font-size:41.59069443px;font-family:Bahnschrift;-inkscape-font-specification:'Bahnschrift, Bold';font-variant-ligatures:normal;font-variant-caps:normal;font-variant-numeric:normal;font-feature-settings:normal;text-align:start;writing-mode:lr-tb;text-anchor:start;fill:#2b3743;fill-opacity:1;stroke-width:1.03973532"
           y="168.55725"
           x="98.388206"
           id="tspan60-1-4-2-3-4"
           sodipodi:role="line">ow</tspan></text>
    </g>
  </g>
</svg>
